PathFileType	4	(X/Y/Z)	C:/Users/opensim2020/Desktop/walking_exp_matlab/subject03_walking07_straight_03.trc																																																																																																																																								
DataRate	CameraRate	NumFrames	NumMarkers	Units	OrigDataRate	OrigDataStartFrame	OrigNumFrames																																																																																																																																				
100	100	7	46	mm	100	2165	306																																																																																																																																				
Frame#	Time	LFHD			RFHD			LBHD			RBHD			C7			T10			CLAV			STRN			RBAK			LSHO			LUPA			LELB			LFRM			LWRA			LWRB			LFIN			RSHO			RUPA			RELB			RFRM			RWRA			RWRB			RFIN			LASI			RASI			LPSI			RPSI			LTHI			LKNE			LTIB			LANK			LHEE			LTOE			RTHI			RKNE			RTIB			RANK			RHEE			RTOE			*39			*40			*41			*42			*43			*44			*45		
		X1	Y1	Z1	X2	Y2	Z2	X3	Y3	Z3	X4	Y4	Z4	X5	Y5	Z5	X6	Y6	Z6	X7	Y7	Z7	X8	Y8	Z8	X9	Y9	Z9	X10	Y10	Z10	X11	Y11	Z11	X12	Y12	Z12	X13	Y13	Z13	X14	Y14	Z14	X15	Y15	Z15	X16	Y16	Z16	X17	Y17	Z17	X18	Y18	Z18	X19	Y19	Z19	X20	Y20	Z20	X21	Y21	Z21	X22	Y22	Z22	X23	Y23	Z23	X24	Y24	Z24	X25	Y25	Z25	X26	Y26	Z26	X27	Y27	Z27	X28	Y28	Z28	X29	Y29	Z29	X30	Y30	Z30	X31	Y31	Z31	X32	Y32	Z32	X33	Y33	Z33	X34	Y34	Z34	X35	Y35	Z35	X36	Y36	Z36	X37	Y37	Z37	X38	Y38	Z38	X39	Y39	Z39	X40	Y40	Z40	X41	Y41	Z41	X42	Y42	Z42	X43	Y43	Z43	X44	Y44	Z44	X45	Y45	Z45	X46	Y46	Z46
																																																																																																																																											
1	0	-1230.11157	1620.24548	1396.00806	-1223.88928	1619.32617	1528.35522	-1351.5564	1561.91467	1404.00818	-1341.9668	1561.65479	1534.56482	-1372.49866	1419.55176	1460.17786	-1442.67029	1114.14185	1460.59033	-1250.52588	1334.9137	1449.23425	-1231.81799	1164.32019	1441.2572	-1429.77161	1253.68982	1564.13562	-1307.26929	1380.75793	1297.10071	-1364.44226	1189.97119	1230.85742	-1389.32581	1067.62585	1224.76355	-1377.58716	937.63007	1229.64563	-1366.22998	821.09033	1267.09167	-1396.81006	824.14819	1220.94116	-1384.53052	741.68048	1234.49719	-1280.5033	1358.65051	1612.0752	-1278.28088	1137.98572	1689.08435	-1263.49756	1026.19092	1701.40393	-1247.44629	890.46942	1702.55908	-1223.01746	795.05933	1662.5802	-1247.08386	789.81256	1710.85596	-1227.24121	718.56238	1696.89954	-1296.36035	936.80615	1339.71692	-1290.24451	933.19183	1574.13318	-1456.58606	965.27209	1390.23462	-1447.99316	979.02094	1539.61438	-1279.17712	648.75629	1285.77039	-1215.23047	483.24786	1317.98181	-1252.49109	286.96243	1317.29028	-1257.86096	77.17091	1356.95984	-1296.43994	40.02615	1397.13965	-1111.12622	53.43403	1373.04419	-1384.9447	646.30701	1615.76099	-1397.17273	468.75684	1578.97156	-1467.79321	288.60324	1586.4845	-1519.09692	75.67112	1540.1488	-1564.38477	42.28432	1489.51257	-1379.03174	37.10976	1524.65906	NaN	NaN	NaN	NaN	NaN	NaN	NaN	NaN	NaN	NaN	NaN	NaN	NaN	NaN	NaN	NaN	NaN	NaN	NaN	NaN	NaN
2	0.01	-1224.46436	1619.2312	1395.94727	-1218.26563	1618.10156	1528.1781	-1346.15271	1560.86157	1403.8175	-1336.49988	1560.52283	1534.46252	-1366.89856	1418.50732	1460.11829	-1437.1875	1113.0835	1460.27393	-1248.22095	1332.75769	1448.82349	-1227.7926	1162.56946	1440.82776	-1424.24719	1252.74829	1564.05652	-1301.8866	1379.51477	1296.95374	-1359.32141	1188.66492	1231.29675	-1383.95227	1066.14001	1225.86865	-1372.67236	936.21564	1230.76721	-1361.7688	819.55872	1268.26111	-1392.30408	822.79016	1222.26111	-1380.255	740.20111	1235.72668	-1274.83264	1357.5	1611.875	-1272.13782	1136.95215	1689.03296	-1257.11951	1025.22351	1701.18884	-1240.73376	889.47736	1702.14038	-1216.24792	794.17285	1661.83875	-1240.10413	788.89618	1710.34229	-1220.01978	717.79431	1696.07153	-1290.64233	935.77094	1339.60022	-1284.66504	932.43854	1574.16028	-1450.93481	963.8866	1389.96545	-1442.57959	977.83008	1539.31653	-1272.44116	648.18048	1285.24402	-1206.76868	483.71289	1317.75	-1238.53333	286.4762	1316.11768	-1237.15149	76.43017	1354.59534	-1274.93909	38.88372	1394.52698	-1089.79956	54.11878	1371.58398	-1380.03796	645.63977	1615.73059	-1393.37268	468.1427	1579.06042	-1465.63818	288.46143	1586.40149	-1518.87183	76.0341	1540.05469	-1564.22485	42.90207	1489.43811	-1378.8678	36.87582	1524.62756	NaN	NaN	NaN	NaN	NaN	NaN	NaN	NaN	NaN	NaN	NaN	NaN	NaN	NaN	NaN	NaN	NaN	NaN	NaN	NaN	NaN
3	0.02	-1218.96838	1618.13806	1395.70691	-1212.672	1616.95166	1527.97668	-1340.4906	1559.68811	1403.53943	-1330.88123	1559.29321	1534.21741	-1361.1665	1417.37036	1459.94373	-1431.52466	1111.98572	1459.89575	-1239.06042	1332.57251	1449.05652	-1221.92749	1161.40649	1441.03601	-1418.5968	1251.68872	1563.91772	-1296.44067	1378.23242	1296.68274	-1353.03552	1186.92334	1232.00537	-1378.64294	1064.67786	1226.57422	-1367.73914	934.83185	1231.51123	-1356.38049	818.12549	1268.5769	-1387.63013	821.32568	1223.08765	-1375.95776	738.73737	1236.33545	-1268.85571	1356.32544	1611.69409	-1265.94922	1135.88611	1688.9093	-1250.70044	1024.13831	1700.9303	-1233.96118	888.48822	1701.80652	-1209.375	793.25903	1661.13	-1232.94263	787.88629	1709.71851	-1212.77441	716.99506	1695.37415	-1284.47852	935.0498	1339.46802	-1278.97986	931.65875	1574.04504	-1445.1178	962.39435	1389.68152	-1437.02454	976.50702	1539.04126	-1265.99146	647.28503	1284.52649	-1198.3186	483.89014	1317.80273	-1224.78003	286.17465	1314.99011	-1216.66479	75.99751	1352.2262	-1253.91113	38.53616	1392.18127	-1068.96167	54.43793	1370.30542	-1374.94006	644.86755	1615.56958	-1389.38171	467.42361	1579.01868	-1463.39099	288.27481	1586.28418	-1518.46338	76.20549	1539.88806	-1563.995	43.34902	1489.27368	-1378.69678	36.80826	1524.7384	NaN	NaN	NaN	NaN	NaN	NaN	NaN	NaN	NaN	NaN	NaN	NaN	NaN	NaN	NaN	NaN	NaN	NaN	NaN	NaN	NaN
4	0.03	-1213.13257	1616.98157	1395.41028	-1207.06323	1615.82715	1527.87903	-1334.81799	1558.51367	1403.16174	-1325.12476	1558.05444	1533.79749	-1355.29138	1416.19019	1459.68726	-1425.65991	1110.76282	1459.4823	-1236.67334	1330.32727	1448.30823	-1215.96265	1160.26929	1440.80664	-1412.88098	1250.58655	1563.58862	-1290.75427	1376.9668	1296.36206	-1347.9104	1185.49316	1232.01453	-1373.10974	1063.20264	1227.02893	-1362.52966	933.33124	1231.74927	-1351.3418	816.49634	1268.65979	-1382.87292	819.91522	1223.50427	-1371.45435	737.3291	1236.61816	-1263.13416	1355.22021	1611.37964	-1259.75061	1134.74634	1688.68555	-1244.23279	1023.04675	1700.65295	-1227.05786	887.31476	1701.04639	-1202.3324	792.27991	1660.32996	-1225.69092	786.83539	1709.07104	-1205.23132	715.79803	1694.56738	-1278.54468	933.94183	1339.29761	-1273.06323	930.8183	1573.90405	-1439.19873	960.84753	1389.37341	-1431.33557	975.14911	1538.78308	-1259.69409	646.26331	1283.73291	-1190.10962	483.85187	1317.72351	-1211.21204	285.91095	1313.90247	-1196.50415	75.88421	1349.89294	-1233.65576	38.29081	1389.72437	-1048.22095	54.68192	1368.17383	-1369.78833	644.1394	1615.4845	-1385.33655	466.74857	1579.05286	-1461.08618	288.14938	1586.19995	-1518.04041	76.50977	1539.76526	-1563.76233	43.97401	1489.15125	-1378.52612	36.7323	1524.83057	NaN	NaN	NaN	NaN	NaN	NaN	NaN	NaN	NaN	NaN	NaN	NaN	NaN	NaN	NaN	NaN	NaN	NaN	NaN	NaN	NaN
5	0.04	-1207.14795	1616.01221	1395.12109	-1201.23572	1614.67529	1527.49475	-1328.87231	1557.25818	1402.72656	-1319.31519	1556.81104	1533.38538	-1349.35681	1415.03357	1459.27979	-1419.72351	1109.57056	1459.1178	-1230.61914	1329.23157	1447.96887	-1210.16577	1159.0022	1440.53711	-1407.06238	1249.50867	1563.18481	-1284.78027	1375.51025	1295.92407	-1342.66675	1184.07227	1231.87207	-1367.47522	1061.73535	1227.14075	-1357.15625	931.84784	1231.6864	-1346.18811	814.84851	1268.39392	-1377.93359	818.50482	1223.5387	-1366.69312	735.87872	1236.40991	-1257.06494	1353.90491	1611.03882	-1253.5061	1133.53784	1688.41699	-1237.70642	1021.85327	1700.26697	-1220.14185	886.25867	1700.49304	-1195.27332	791.31592	1659.56958	-1218.47363	785.67999	1708.39221	-1197.88892	714.77942	1693.63428	-1272.34851	933.12323	1339.06836	-1267.3999	929.83313	1573.75635	-1433.18518	959.32452	1389.03223	-1425.54138	973.75323	1538.39807	-1253.58154	644.94684	1282.67957	-1182.54602	483.65244	1317.51392	-1197.94556	285.7644	1312.78821	-1176.82678	76.05086	1347.55847	-1213.20837	37.94447	1387.34851	-1027.83521	55.11115	1366.25256	-1364.49634	643.37994	1615.46411	-1381.15161	466.04227	1579.15198	-1458.59827	287.9592	1586.11316	-1517.76208	76.83146	1539.66479	-1563.6106	44.55732	1488.88098	-1378.38843	36.41074	1524.73328	NaN	NaN	NaN	NaN	NaN	NaN	NaN	NaN	NaN	NaN	NaN	NaN	NaN	NaN	NaN	NaN	NaN	NaN	NaN	NaN	NaN
6	0.05	-1201.28833	1614.70276	1394.58508	-1195.25244	1613.4856	1526.89868	-1322.98914	1556.03442	1402.19714	-1313.35547	1555.59985	1532.82983	-1343.23645	1413.87622	1458.79883	-1413.59753	1108.29578	1458.74084	-1224.53918	1327.94897	1447.5769	-1204.19617	1157.66602	1440.40393	-1401.15771	1248.41357	1562.71082	-1278.73584	1374.09888	1295.43896	-1335.96802	1182.49548	1231.95837	-1361.75867	1060.32288	1226.87354	-1351.7085	930.42035	1231.34399	-1340.42261	813.34589	1267.88257	-1372.84253	817.27539	1222.9696	-1361.57617	734.45154	1235.92395	-1251.13672	1352.69519	1610.62793	-1247.21533	1132.3418	1688.04431	-1231.08923	1020.61914	1699.85413	-1213.16394	885.0788	1699.93042	-1188.01013	790.27557	1658.94617	-1211.1792	784.5578	1707.6095	-1190.03809	713.39111	1692.45959	-1266.03625	932.03448	1338.73352	-1261.28748	928.93176	1573.53198	-1427.01086	957.79468	1388.66443	-1419.62988	972.31952	1538.01025	-1247.48059	643.4787	1281.88416	-1175.08838	483.34033	1317.36975	-1184.97729	285.63593	1311.77466	-1157.5708	76.52023	1345.26074	-1193.44299	38.84303	1385.38184	-1008.00238	55.47932	1364.11401	-1359.03186	642.42426	1615.27588	-1376.79358	465.13965	1579.08301	-1456.00586	287.7594	1586.03223	-1517.32104	77.33255	1539.66248	-1563.45044	45.47555	1488.98389	-1378.16052	36.36098	1524.89844	NaN	NaN	NaN	NaN	NaN	NaN	NaN	NaN	NaN	NaN	NaN	NaN	NaN	NaN	NaN	NaN	NaN	NaN	NaN	NaN	NaN
7	0.06	-1195.04346	1613.46265	1394.02197	-1189.17261	1612.30249	1526.32202	-1316.78906	1554.7876	1401.5874	-1307.28613	1554.38342	1532.22351	-1336.94727	1412.69055	1458.2373	-1407.30481	1107.06226	1458.31238	-1215.10681	1327.49939	1447.55688	-1198.22656	1156.3739	1440.08606	-1395.07275	1247.3075	1562.15674	-1272.54163	1372.72412	1294.90332	-1330.82361	1181.32373	1231.16772	-1355.93286	1058.88831	1226.30774	-1346.21521	928.90808	1230.87842	-1334.59546	811.83771	1267.18066	-1367.24817	815.88892	1222.45068	-1356.19592	733.13232	1235.2821	-1245.05603	1351.44653	1610.09387	-1240.73682	1131.09692	1687.58594	-1224.31885	1019.45203	1699.44519	-1206.06348	883.9212	1699.2345	-1180.69495	789.22119	1658.08228	-1203.77942	783.44788	1706.88513	-1182.77869	712.74664	1691.88318	-1259.07019	931.36188	1338.30261	-1255.12146	927.90839	1573.22717	-1420.5304	956.21228	1388.18481	-1413.51172	970.78729	1537.60156	-1241.79431	641.8465	1280.47644	-1167.61768	482.68103	1317.25732	-1172.52271	285.61465	1310.73792	-1138.85229	77.12251	1342.93896	-1174.12537	39.51465	1383.13586	-988.73181	55.82184	1361.70813	-1353.28955	641.49139	1615.17029	-1372.1582	464.25989	1579.09705	-1453.07532	287.61743	1586.05908	-1516.7821	77.77093	1539.65637	-1563.24231	46.30254	1488.95386	-1377.96008	36.25621	1524.97473	NaN	NaN	NaN	NaN	NaN	NaN	NaN	NaN	NaN	NaN	NaN	NaN	NaN	NaN	NaN	NaN	NaN	NaN	NaN	NaN	NaN
